# xmcd
#
# Track frame offsets:
#	150
#	17089
#	32383
#	48990
#	65399
#	84166
#	99180
#	119901
#	137918
#	153986
#
# Disc length: 2546 seconds
# Revision: 0
# Processed by: cddbd v1.5.2PL0 Copyright (c) Steve Scherf et al.
# Submitted via: dBpowerAMP V12.0
#
DISCID=7609f00a
DTITLE=Vintage Trouble - The Bomb Shelter Sessions
DYEAR=2010
DGENRE=Soul
TTITLE0=Blues Hand Me Down
TTITLE1=Still And Always Will
TTITLE2=Nancy Lee
TTITLE3=Gracefully
TTITLE4=You Better Believe It
TTITLE5=Not Alright By Me
TTITLE6=Nobody Told Me
TTITLE7=Jezzebella
TTITLE8=Total Strangers
TTITLE9=Run Outta You
EXTD=
EXTT0=
EXTT1=
EXTT2=
EXTT3=
EXTT4=
EXTT5=
EXTT6=
EXTT7=
EXTT8=
EXTT9=
PLAYORDER=
